<svg width="30" height="30" viewBox="0 0 30 30" fill="none" xmlns="http://www.w3.org/2000/svg">
<rect x="13.7383" y="16.9445" width="2.80374" height="6.94444" fill="#386FFC"/>
<rect x="0.5" y="11.6111" width="29" height="17.8889" stroke="#386FFC"/>
<mask id="path-3-inside-1_134_34" fill="white">
<path fill-rule="evenodd" clip-rule="evenodd" d="M25.3551 11.1111H26.3551C26.3551 4.97461 21.334 0 15.1402 0C8.94634 0 3.92523 4.97461 3.92523 11.1111H4.92523C4.92523 5.53565 9.48983 1 15.1402 1C20.7905 1 25.3551 5.53565 25.3551 11.1111Z"/>
</mask>
<path fill-rule="evenodd" clip-rule="evenodd" d="M25.3551 11.1111H26.3551C26.3551 4.97461 21.334 0 15.1402 0C8.94634 0 3.92523 4.97461 3.92523 11.1111H4.92523C4.92523 5.53565 9.48983 1 15.1402 1C20.7905 1 25.3551 5.53565 25.3551 11.1111Z" fill="#386FFC"/>
<path d="M25.3551 11.1111H24.3551V12.1111H25.3551V11.1111ZM26.3551 11.1111V12.1111H27.3551V11.1111H26.3551ZM3.92523 11.1111H2.92523V12.1111H3.92523V11.1111ZM4.92523 11.1111V12.1111H5.92523V11.1111H4.92523ZM25.3551 12.1111H26.3551V10.1111H25.3551V12.1111ZM27.3551 11.1111C27.3551 4.41358 21.8775 -1 15.1402 -1V1C20.7905 1 25.3551 5.53565 25.3551 11.1111H27.3551ZM15.1402 -1C8.40284 -1 2.92523 4.41358 2.92523 11.1111H4.92523C4.92523 5.53565 9.48983 1 15.1402 1V-1ZM3.92523 12.1111H4.92523V10.1111H3.92523V12.1111ZM15.1402 0C8.94608 0 3.92523 4.97487 3.92523 11.1111H5.92523C5.92523 6.09642 10.0336 2 15.1402 2V0ZM26.3551 11.1111C26.3551 4.97487 21.3343 0 15.1402 0V2C20.2468 2 24.3551 6.09642 24.3551 11.1111H26.3551Z" fill="#386FFC" mask="url(#path-3-inside-1_134_34)"/>
</svg>
